# Blender v2.82 (sub 7) OBJ File: 'ring.blend'
# www.blender.org
mtllib ring.mtl
o Circle
v 0.000000 0.000000 -1.000000
v -0.866025 0.000000 -0.500000
v -0.866025 0.000000 0.500000
v 0.000000 0.000000 1.000000
v 0.866025 0.000000 0.500000
v 0.866025 0.000000 -0.500000
v 0.000000 0.051871 -1.000000
v -0.866025 0.051871 -0.500000
v -0.866025 0.051871 0.500000
v 0.000000 0.051871 1.000000
v 0.866025 0.051871 0.500000
v 0.866025 0.051871 -0.500000
v 0.000000 0.000000 -1.068117
v -0.925017 0.000000 -0.534059
v -0.925017 0.000000 0.534059
v 0.000000 0.000000 1.068117
v 0.925017 0.000000 0.534059
v 0.925017 0.000000 -0.534059
v 0.000000 0.051871 -1.068117
v -0.925017 0.051871 -0.534059
v -0.925017 0.051871 0.534059
v 0.000000 0.051871 1.068117
v 0.925017 0.051871 0.534059
v 0.925017 0.051871 -0.534059
vt 0.000000 0.000000
vt 0.000000 0.000000
vt 0.000000 0.000000
vt 0.000000 0.000000
vt 0.000000 0.000000
vt 0.000000 0.000000
vt 0.000000 0.000000
vt 0.000000 0.000000
vt 0.000000 0.000000
vt 0.000000 0.000000
vt 0.000000 0.000000
vt 0.000000 0.000000
vt 0.000000 0.000000
vt 0.000000 0.000000
vt 0.000000 0.000000
vt 0.000000 0.000000
vt 0.000000 0.000000
vt 0.000000 0.000000
vt 0.000000 0.000000
vt 0.000000 0.000000
vt 0.000000 0.000000
vt 0.000000 0.000000
vt 0.000000 0.000000
vt 0.000000 0.000000
vn 0.5000 0.0000 -0.8660
vn 0.5000 0.0000 0.8660
vn -0.5000 0.0000 0.8660
vn -0.5000 0.0000 -0.8660
vn 1.0000 0.0000 -0.0000
vn -1.0000 0.0000 0.0000
vn 0.0000 1.0000 0.0000
vn 0.0000 -1.0000 0.0000
usemtl Material
s off
f 4/1/1 3/2/1 9/3/1 10/4/1
f 2/5/2 1/6/2 7/7/2 8/8/2
f 1/6/3 6/9/3 12/10/3 7/7/3
f 5/11/4 4/1/4 10/4/4 11/12/4
f 3/2/5 2/5/5 8/8/5 9/3/5
f 6/9/6 5/11/6 11/12/6 12/10/6
f 16/13/3 22/14/3 21/15/3 15/16/3
f 14/17/4 20/18/4 19/19/4 13/20/4
f 13/20/1 19/19/1 24/21/1 18/22/1
f 17/23/2 23/24/2 22/14/2 16/13/2
f 15/16/6 21/15/6 20/18/6 14/17/6
f 18/22/5 24/21/5 23/24/5 17/23/5
f 7/7/7 19/19/7 20/18/7 8/8/7
f 5/11/8 17/23/8 16/13/8 4/1/8
f 11/12/7 23/24/7 24/21/7 12/10/7
f 2/5/8 14/17/8 13/20/8 1/6/8
f 8/8/7 20/18/7 21/15/7 9/3/7
f 6/9/8 18/22/8 17/23/8 5/11/8
f 12/10/7 24/21/7 19/19/7 7/7/7
f 3/2/8 15/16/8 14/17/8 2/5/8
f 9/3/7 21/15/7 22/14/7 10/4/7
f 1/6/8 13/20/8 18/22/8 6/9/8
f 4/1/8 16/13/8 15/16/8 3/2/8
f 10/4/7 22/14/7 23/24/7 11/12/7
